<svg xmlns="http://www.w3.org/2000/svg" viewBox="0 0 340 340" width="72" height="72">
	<style>
		tspan { white-space:pre }
		.shp0 { fill: #7158e8 } 
	</style>
	<g id="Layer">
		<g id="Layer">
			<path id="Layer" fill-rule="evenodd" class="shp0" d="M340 170.01C340 263.89 263.89 340 170 340C76.11 340 0 263.89 0 170.01C0 76.11 76.11 0 170 0C263.89 0 340 76.11 340 170.01ZM255.41 208L255.41 205.1C255.41 190.02 248.95 176.45 238.64 166.93C245.22 158.43 249.19 147.82 249.19 136.27L249.19 133.52C249.19 106.87 228.28 85.08 202.04 83.5L202.04 64.52L168.58 64.52L168.58 83.34L154.88 83.34L154.88 64.52L121.41 64.52L121.41 83.34L97.04 83.34L97.04 116.8L113.62 116.8L113.62 226.66L97.04 226.66L97.04 260.09L121.41 260.09L121.41 275.47L154.88 275.47L154.88 260.09L168.58 260.09L168.58 275.47L202.04 275.47L202.04 260.09L203.3 260.09C232.04 260.09 255.41 236.72 255.41 208ZM215.75 136.27C215.75 145.5 208.22 153 199 153L147.09 153L147.09 116.8L199 116.8C208.22 116.8 215.75 124.31 215.75 133.52L215.75 136.27ZM221.96 205.1L221.96 208C221.96 218.28 213.59 226.66 203.3 226.66L147.09 226.66L147.09 186.45L203.3 186.45C213.59 186.45 221.96 194.81 221.96 205.1Z" />
		</g>
	</g>
</svg>